<svg width="40" height="40" viewBox="0 0 40 40" fill="none" xmlns="http://www.w3.org/2000/svg">
<path d="M32.9187 0H7.08131C3.17041 0 0 3.28783 0 7.34358V32.6564C0 36.7122 3.17041 40 7.08131 40H32.9187C36.8296 40 40 36.7122 40 32.6564V7.34358C40 3.28783 36.8296 0 32.9187 0Z" fill="white"/>
<path d="M30.8982 30.3084H26.2228C25.7889 30.3084 25.4184 30.0516 25.2639 29.6673L20.216 17.4092C20.1247 17.1871 19.8808 17.1852 19.7877 17.4034L16.6245 25.6014C16.5501 25.7847 16.6798 25.9874 16.8716 25.9874H20.3486C20.5639 25.9874 20.7583 26.121 20.8423 26.3266L22.3368 29.4067C22.5118 29.8353 22.2083 30.3084 21.7614 30.3084H9.10357C8.69953 30.3084 8.42205 29.8913 8.57661 29.4742L16.6558 9.59348C16.8122 9.17638 17.2144 8.88867 17.678 8.88867H22.3219C22.7855 8.88867 23.1896 9.17638 23.3441 9.59348L31.4234 29.4742C31.5778 29.8913 31.3004 30.3084 30.8982 30.3084L30.8982 30.3084Z" fill="#EB1000"/>
</svg>
